<mxfile host="Electron" agent="Mozilla/5.0 (Windows NT 10.0; Win64; x64) AppleWebKit/537.36 (KHTML, like Gecko) draw.io/26.1.1 Chrome/132.0.6834.210 Electron/34.3.3 Safari/537.36" version="26.1.1">
  <diagram name="Page-1" id="zpTf2daEeOjCyLCGgHJU">
    <mxGraphModel dx="1393" dy="2665" grid="1" gridSize="10" guides="1" tooltips="1" connect="1" arrows="1" fold="1" page="1" pageScale="1" pageWidth="827" pageHeight="1169" math="0" shadow="0">
      <root>
        <mxCell id="0" />
        <mxCell id="1" parent="0" />
        <mxCell id="tEx3_piYEMlh2_4_1Kg4-1" value="&lt;font style=&quot;font-size: 32px;&quot;&gt;MPD&lt;/font&gt;" style="text;html=1;align=center;verticalAlign=middle;resizable=0;points=[];autosize=1;strokeColor=none;fillColor=none;" vertex="1" parent="1">
          <mxGeometry x="1150" y="-30" width="90" height="50" as="geometry" />
        </mxCell>
        <mxCell id="tEx3_piYEMlh2_4_1Kg4-2" value="Chef_cuisiniers" style="swimlane;whiteSpace=wrap;html=1;" vertex="1" parent="1">
          <mxGeometry x="910" y="67.5" width="205" height="120" as="geometry" />
        </mxCell>
        <mxCell id="tEx3_piYEMlh2_4_1Kg4-3" value="&lt;b&gt;&lt;u&gt;id&lt;/u&gt;&lt;/b&gt;" style="text;html=1;align=center;verticalAlign=middle;resizable=0;points=[];autosize=1;strokeColor=none;fillColor=none;" vertex="1" parent="tEx3_piYEMlh2_4_1Kg4-2">
          <mxGeometry x="45" y="25" width="30" height="30" as="geometry" />
        </mxCell>
        <mxCell id="tEx3_piYEMlh2_4_1Kg4-4" value="Nom&lt;div&gt;Datenaissance&lt;/div&gt;&lt;div&gt;Annéeexpérience&lt;/div&gt;&lt;div&gt;Typechef&lt;/div&gt;" style="text;html=1;align=center;verticalAlign=middle;resizable=0;points=[];autosize=1;strokeColor=none;fillColor=none;" vertex="1" parent="tEx3_piYEMlh2_4_1Kg4-2">
          <mxGeometry y="45" width="120" height="70" as="geometry" />
        </mxCell>
        <mxCell id="tEx3_piYEMlh2_4_1Kg4-5" value="Int" style="text;html=1;align=center;verticalAlign=middle;resizable=0;points=[];autosize=1;strokeColor=none;fillColor=none;" vertex="1" parent="tEx3_piYEMlh2_4_1Kg4-2">
          <mxGeometry x="135" y="25" width="40" height="30" as="geometry" />
        </mxCell>
        <mxCell id="tEx3_piYEMlh2_4_1Kg4-6" value="Varchar(100)&lt;div&gt;DateTime&lt;/div&gt;&lt;div&gt;Int&lt;/div&gt;&lt;div&gt;Varchar(100)&lt;/div&gt;" style="text;html=1;align=center;verticalAlign=middle;resizable=0;points=[];autosize=1;strokeColor=none;fillColor=none;" vertex="1" parent="tEx3_piYEMlh2_4_1Kg4-2">
          <mxGeometry x="110" y="45" width="90" height="70" as="geometry" />
        </mxCell>
        <mxCell id="tEx3_piYEMlh2_4_1Kg4-7" value="Style_cuisines" style="swimlane;whiteSpace=wrap;html=1;" vertex="1" parent="1">
          <mxGeometry x="1310" y="350" width="200" height="105" as="geometry" />
        </mxCell>
        <mxCell id="tEx3_piYEMlh2_4_1Kg4-8" value="&lt;b&gt;&lt;u&gt;id&lt;/u&gt;&lt;/b&gt;" style="text;html=1;align=center;verticalAlign=middle;resizable=0;points=[];autosize=1;strokeColor=none;fillColor=none;" vertex="1" parent="tEx3_piYEMlh2_4_1Kg4-7">
          <mxGeometry x="45" y="30" width="30" height="30" as="geometry" />
        </mxCell>
        <mxCell id="tEx3_piYEMlh2_4_1Kg4-9" value="Nomstylecuisine" style="text;html=1;align=center;verticalAlign=middle;resizable=0;points=[];autosize=1;strokeColor=none;fillColor=none;" vertex="1" parent="tEx3_piYEMlh2_4_1Kg4-7">
          <mxGeometry x="5" y="60" width="110" height="30" as="geometry" />
        </mxCell>
        <mxCell id="tEx3_piYEMlh2_4_1Kg4-10" value="Int" style="text;html=1;align=center;verticalAlign=middle;resizable=0;points=[];autosize=1;strokeColor=none;fillColor=none;" vertex="1" parent="tEx3_piYEMlh2_4_1Kg4-7">
          <mxGeometry x="130" y="30" width="40" height="30" as="geometry" />
        </mxCell>
        <mxCell id="tEx3_piYEMlh2_4_1Kg4-11" value="Varchar(100)" style="text;html=1;align=center;verticalAlign=middle;resizable=0;points=[];autosize=1;strokeColor=none;fillColor=none;" vertex="1" parent="tEx3_piYEMlh2_4_1Kg4-7">
          <mxGeometry x="105" y="60" width="90" height="30" as="geometry" />
        </mxCell>
        <mxCell id="tEx3_piYEMlh2_4_1Kg4-12" value="Restaurants" style="swimlane;whiteSpace=wrap;html=1;" vertex="1" parent="1">
          <mxGeometry x="983" y="352.5" width="200" height="140" as="geometry" />
        </mxCell>
        <mxCell id="tEx3_piYEMlh2_4_1Kg4-13" value="&lt;div&gt;&lt;b&gt;&lt;u&gt;#id_Style_cuisine&lt;/u&gt;&lt;/b&gt;&lt;/div&gt;" style="text;html=1;align=center;verticalAlign=middle;resizable=0;points=[];autosize=1;strokeColor=none;fillColor=none;" vertex="1" parent="tEx3_piYEMlh2_4_1Kg4-12">
          <mxGeometry x="7" y="45" width="120" height="30" as="geometry" />
        </mxCell>
        <mxCell id="tEx3_piYEMlh2_4_1Kg4-14" value="Nomrestaurant&lt;div&gt;Adresserestaurant&lt;/div&gt;&lt;div&gt;Nombrecouvert&lt;/div&gt;" style="text;html=1;align=center;verticalAlign=middle;resizable=0;points=[];autosize=1;strokeColor=none;fillColor=none;" vertex="1" parent="tEx3_piYEMlh2_4_1Kg4-12">
          <mxGeometry y="75" width="120" height="60" as="geometry" />
        </mxCell>
        <mxCell id="tEx3_piYEMlh2_4_1Kg4-15" value="&lt;b&gt;&lt;u&gt;id&lt;/u&gt;&lt;/b&gt;" style="text;html=1;align=center;verticalAlign=middle;resizable=0;points=[];autosize=1;strokeColor=none;fillColor=none;" vertex="1" parent="tEx3_piYEMlh2_4_1Kg4-12">
          <mxGeometry x="52" y="25" width="30" height="30" as="geometry" />
        </mxCell>
        <mxCell id="tEx3_piYEMlh2_4_1Kg4-16" value="Int" style="text;html=1;align=center;verticalAlign=middle;resizable=0;points=[];autosize=1;strokeColor=none;fillColor=none;" vertex="1" parent="tEx3_piYEMlh2_4_1Kg4-12">
          <mxGeometry x="137" y="25" width="40" height="30" as="geometry" />
        </mxCell>
        <mxCell id="tEx3_piYEMlh2_4_1Kg4-17" value="Int" style="text;html=1;align=center;verticalAlign=middle;resizable=0;points=[];autosize=1;strokeColor=none;fillColor=none;" vertex="1" parent="tEx3_piYEMlh2_4_1Kg4-12">
          <mxGeometry x="137" y="45" width="40" height="30" as="geometry" />
        </mxCell>
        <mxCell id="tEx3_piYEMlh2_4_1Kg4-18" value="Varchar(100)&lt;div&gt;Varchar(100)&lt;/div&gt;&lt;div&gt;Varchar(100)&lt;/div&gt;" style="text;html=1;align=center;verticalAlign=middle;resizable=0;points=[];autosize=1;strokeColor=none;fillColor=none;" vertex="1" parent="tEx3_piYEMlh2_4_1Kg4-12">
          <mxGeometry x="112" y="75" width="90" height="60" as="geometry" />
        </mxCell>
        <mxCell id="tEx3_piYEMlh2_4_1Kg4-19" value="Type_cuisines" style="swimlane;whiteSpace=wrap;html=1;" vertex="1" parent="1">
          <mxGeometry x="1403" y="75" width="200" height="105" as="geometry" />
        </mxCell>
        <mxCell id="tEx3_piYEMlh2_4_1Kg4-20" value="&lt;b&gt;&lt;u&gt;id&lt;/u&gt;&lt;/b&gt;" style="text;html=1;align=center;verticalAlign=middle;resizable=0;points=[];autosize=1;strokeColor=none;fillColor=none;" vertex="1" parent="tEx3_piYEMlh2_4_1Kg4-19">
          <mxGeometry x="40" y="30" width="30" height="30" as="geometry" />
        </mxCell>
        <mxCell id="tEx3_piYEMlh2_4_1Kg4-21" value="Nomtypecuisine" style="text;html=1;align=center;verticalAlign=middle;resizable=0;points=[];autosize=1;strokeColor=none;fillColor=none;" vertex="1" parent="tEx3_piYEMlh2_4_1Kg4-19">
          <mxGeometry y="60" width="110" height="30" as="geometry" />
        </mxCell>
        <mxCell id="tEx3_piYEMlh2_4_1Kg4-22" value="Varchar(100)" style="text;html=1;align=center;verticalAlign=middle;resizable=0;points=[];autosize=1;strokeColor=none;fillColor=none;" vertex="1" parent="tEx3_piYEMlh2_4_1Kg4-19">
          <mxGeometry x="97" y="60" width="90" height="30" as="geometry" />
        </mxCell>
        <mxCell id="tEx3_piYEMlh2_4_1Kg4-23" value="Int" style="text;html=1;align=center;verticalAlign=middle;resizable=0;points=[];autosize=1;strokeColor=none;fillColor=none;" vertex="1" parent="tEx3_piYEMlh2_4_1Kg4-19">
          <mxGeometry x="122" y="30" width="40" height="30" as="geometry" />
        </mxCell>
        <mxCell id="tEx3_piYEMlh2_4_1Kg4-24" value="Chef_cuisiniers_Type_cuisines" style="swimlane;whiteSpace=wrap;html=1;" vertex="1" parent="1">
          <mxGeometry x="1163" y="80" width="190" height="100" as="geometry" />
        </mxCell>
        <mxCell id="tEx3_piYEMlh2_4_1Kg4-25" value="&lt;b&gt;&lt;u&gt;#id_Chef_cuisiniers&lt;/u&gt;&lt;/b&gt;" style="text;html=1;align=center;verticalAlign=middle;resizable=0;points=[];autosize=1;strokeColor=none;fillColor=none;" vertex="1" parent="tEx3_piYEMlh2_4_1Kg4-24">
          <mxGeometry x="-8" y="30" width="140" height="30" as="geometry" />
        </mxCell>
        <mxCell id="tEx3_piYEMlh2_4_1Kg4-26" value="&lt;b&gt;&lt;u&gt;#id_Type_cuisines&lt;/u&gt;&lt;/b&gt;" style="text;html=1;align=center;verticalAlign=middle;resizable=0;points=[];autosize=1;strokeColor=none;fillColor=none;" vertex="1" parent="tEx3_piYEMlh2_4_1Kg4-24">
          <mxGeometry x="-8" y="60" width="130" height="30" as="geometry" />
        </mxCell>
        <mxCell id="tEx3_piYEMlh2_4_1Kg4-27" value="Int" style="text;html=1;align=center;verticalAlign=middle;resizable=0;points=[];autosize=1;strokeColor=none;fillColor=none;" vertex="1" parent="tEx3_piYEMlh2_4_1Kg4-24">
          <mxGeometry x="132" y="30" width="40" height="30" as="geometry" />
        </mxCell>
        <mxCell id="tEx3_piYEMlh2_4_1Kg4-28" value="Int" style="text;html=1;align=center;verticalAlign=middle;resizable=0;points=[];autosize=1;strokeColor=none;fillColor=none;" vertex="1" parent="tEx3_piYEMlh2_4_1Kg4-24">
          <mxGeometry x="132" y="60" width="40" height="30" as="geometry" />
        </mxCell>
        <mxCell id="tEx3_piYEMlh2_4_1Kg4-29" value="" style="endArrow=none;html=1;rounded=0;entryX=1;entryY=0.5;entryDx=0;entryDy=0;" edge="1" parent="1" source="tEx3_piYEMlh2_4_1Kg4-25" target="tEx3_piYEMlh2_4_1Kg4-2">
          <mxGeometry width="50" height="50" relative="1" as="geometry">
            <mxPoint x="1083" y="240" as="sourcePoint" />
            <mxPoint x="1133" y="190" as="targetPoint" />
          </mxGeometry>
        </mxCell>
        <mxCell id="tEx3_piYEMlh2_4_1Kg4-30" value="" style="endArrow=none;html=1;rounded=0;entryX=0;entryY=0.5;entryDx=0;entryDy=0;exitX=0.981;exitY=0.499;exitDx=0;exitDy=0;exitPerimeter=0;" edge="1" parent="1" source="tEx3_piYEMlh2_4_1Kg4-26" target="tEx3_piYEMlh2_4_1Kg4-19">
          <mxGeometry width="50" height="50" relative="1" as="geometry">
            <mxPoint x="1343" y="250" as="sourcePoint" />
            <mxPoint x="1393" y="200" as="targetPoint" />
          </mxGeometry>
        </mxCell>
        <mxCell id="tEx3_piYEMlh2_4_1Kg4-31" value="Type_cuisines_Style_cuisines" style="swimlane;whiteSpace=wrap;html=1;" vertex="1" parent="1">
          <mxGeometry x="1408" y="220" width="190" height="100" as="geometry" />
        </mxCell>
        <mxCell id="tEx3_piYEMlh2_4_1Kg4-32" value="&lt;b&gt;&lt;u&gt;#id_Type_cuisines&lt;/u&gt;&lt;/b&gt;" style="text;html=1;align=center;verticalAlign=middle;resizable=0;points=[];autosize=1;strokeColor=none;fillColor=none;" vertex="1" parent="tEx3_piYEMlh2_4_1Kg4-31">
          <mxGeometry y="30" width="130" height="30" as="geometry" />
        </mxCell>
        <mxCell id="tEx3_piYEMlh2_4_1Kg4-33" value="&lt;b&gt;&lt;u&gt;#id_Style_cuisines&lt;/u&gt;&lt;/b&gt;" style="text;html=1;align=center;verticalAlign=middle;resizable=0;points=[];autosize=1;strokeColor=none;fillColor=none;" vertex="1" parent="tEx3_piYEMlh2_4_1Kg4-31">
          <mxGeometry y="60" width="130" height="30" as="geometry" />
        </mxCell>
        <mxCell id="tEx3_piYEMlh2_4_1Kg4-34" value="Int" style="text;html=1;align=center;verticalAlign=middle;resizable=0;points=[];autosize=1;strokeColor=none;fillColor=none;" vertex="1" parent="tEx3_piYEMlh2_4_1Kg4-31">
          <mxGeometry x="130" y="60" width="40" height="30" as="geometry" />
        </mxCell>
        <mxCell id="tEx3_piYEMlh2_4_1Kg4-35" value="Int" style="text;html=1;align=center;verticalAlign=middle;resizable=0;points=[];autosize=1;strokeColor=none;fillColor=none;" vertex="1" parent="tEx3_piYEMlh2_4_1Kg4-31">
          <mxGeometry x="130" y="30" width="40" height="30" as="geometry" />
        </mxCell>
        <mxCell id="tEx3_piYEMlh2_4_1Kg4-36" value="" style="endArrow=none;html=1;rounded=0;entryX=0.5;entryY=1;entryDx=0;entryDy=0;exitX=0;exitY=0.651;exitDx=0;exitDy=0;exitPerimeter=0;" edge="1" parent="1" source="tEx3_piYEMlh2_4_1Kg4-32" target="tEx3_piYEMlh2_4_1Kg4-19">
          <mxGeometry width="50" height="50" relative="1" as="geometry">
            <mxPoint x="1313" y="290" as="sourcePoint" />
            <mxPoint x="1363" y="240" as="targetPoint" />
          </mxGeometry>
        </mxCell>
        <mxCell id="tEx3_piYEMlh2_4_1Kg4-37" value="" style="endArrow=none;html=1;rounded=0;entryX=0.028;entryY=0.472;entryDx=0;entryDy=0;entryPerimeter=0;exitX=0.5;exitY=0;exitDx=0;exitDy=0;" edge="1" parent="1" source="tEx3_piYEMlh2_4_1Kg4-7" target="tEx3_piYEMlh2_4_1Kg4-33">
          <mxGeometry width="50" height="50" relative="1" as="geometry">
            <mxPoint x="1273" y="310" as="sourcePoint" />
            <mxPoint x="1323" y="260" as="targetPoint" />
          </mxGeometry>
        </mxCell>
        <mxCell id="tEx3_piYEMlh2_4_1Kg4-38" value="" style="endArrow=none;html=1;rounded=0;exitX=0.996;exitY=0.423;exitDx=0;exitDy=0;exitPerimeter=0;entryX=0;entryY=0.5;entryDx=0;entryDy=0;" edge="1" parent="1" source="tEx3_piYEMlh2_4_1Kg4-13" target="tEx3_piYEMlh2_4_1Kg4-7">
          <mxGeometry width="50" height="50" relative="1" as="geometry">
            <mxPoint x="1053" y="310" as="sourcePoint" />
            <mxPoint x="1103" y="260" as="targetPoint" />
          </mxGeometry>
        </mxCell>
        <mxCell id="tEx3_piYEMlh2_4_1Kg4-39" value="Chef_cuisiniers_Restaurants" style="swimlane;whiteSpace=wrap;html=1;" vertex="1" parent="1">
          <mxGeometry x="943" y="235" width="190" height="100" as="geometry" />
        </mxCell>
        <mxCell id="tEx3_piYEMlh2_4_1Kg4-40" value="&lt;b&gt;&lt;u&gt;#id_Chef_cuisiniers&lt;/u&gt;&lt;/b&gt;" style="text;html=1;align=center;verticalAlign=middle;resizable=0;points=[];autosize=1;strokeColor=none;fillColor=none;" vertex="1" parent="tEx3_piYEMlh2_4_1Kg4-39">
          <mxGeometry y="25" width="140" height="30" as="geometry" />
        </mxCell>
        <mxCell id="tEx3_piYEMlh2_4_1Kg4-41" value="&lt;b&gt;&lt;u&gt;#id_Restaurants&lt;/u&gt;&lt;/b&gt;" style="text;html=1;align=center;verticalAlign=middle;resizable=0;points=[];autosize=1;strokeColor=none;fillColor=none;" vertex="1" parent="tEx3_piYEMlh2_4_1Kg4-39">
          <mxGeometry x="10" y="55" width="120" height="30" as="geometry" />
        </mxCell>
        <mxCell id="tEx3_piYEMlh2_4_1Kg4-42" value="Int" style="text;html=1;align=center;verticalAlign=middle;resizable=0;points=[];autosize=1;strokeColor=none;fillColor=none;" vertex="1" parent="tEx3_piYEMlh2_4_1Kg4-39">
          <mxGeometry x="137" y="25" width="40" height="30" as="geometry" />
        </mxCell>
        <mxCell id="tEx3_piYEMlh2_4_1Kg4-43" value="Int" style="text;html=1;align=center;verticalAlign=middle;resizable=0;points=[];autosize=1;strokeColor=none;fillColor=none;" vertex="1" parent="tEx3_piYEMlh2_4_1Kg4-39">
          <mxGeometry x="137" y="55" width="40" height="30" as="geometry" />
        </mxCell>
        <mxCell id="tEx3_piYEMlh2_4_1Kg4-44" value="" style="endArrow=none;html=1;rounded=0;entryX=0.5;entryY=0;entryDx=0;entryDy=0;exitX=0.014;exitY=0.721;exitDx=0;exitDy=0;exitPerimeter=0;" edge="1" parent="1" source="tEx3_piYEMlh2_4_1Kg4-41" target="tEx3_piYEMlh2_4_1Kg4-12">
          <mxGeometry width="50" height="50" relative="1" as="geometry">
            <mxPoint x="903" y="420" as="sourcePoint" />
            <mxPoint x="953" y="370" as="targetPoint" />
          </mxGeometry>
        </mxCell>
        <mxCell id="tEx3_piYEMlh2_4_1Kg4-45" value="" style="endArrow=none;html=1;rounded=0;entryX=-0.001;entryY=0.504;entryDx=0;entryDy=0;entryPerimeter=0;exitX=0.5;exitY=1;exitDx=0;exitDy=0;" edge="1" parent="1" source="tEx3_piYEMlh2_4_1Kg4-2" target="tEx3_piYEMlh2_4_1Kg4-40">
          <mxGeometry width="50" height="50" relative="1" as="geometry">
            <mxPoint x="853" y="320" as="sourcePoint" />
            <mxPoint x="903" y="270" as="targetPoint" />
          </mxGeometry>
        </mxCell>
      </root>
    </mxGraphModel>
  </diagram>
</mxfile>
